<?xml version="1.0" encoding="iso-8859-1"?>
<!-- Uploaded to: SVG Repo, www.svgrepo.com, Generator: SVG Repo Mixer Tools -->
<svg fill="#000000" height="800px" width="800px" version="1.1" id="Layer_1" xmlns="http://www.w3.org/2000/svg" xmlns:xlink="http://www.w3.org/1999/xlink" 
	 viewBox="0 0 511.998 511.998" xml:space="preserve">
<g>
	<g>
		<path d="M502.927,282.862l-21.273-56.727h4.753c4.719,0,8.533-3.823,8.533-8.533s-3.814-8.533-8.533-8.533h-16.87
			c-0.136,0-0.264,0-0.401,0h-42.468h-8.533c0-4.71-3.814-8.533-8.533-8.533h-27.63l33.091-27.578
			c1.945-1.621,3.063-4.019,3.063-6.553c0-2.534-1.126-4.932-3.063-6.553l-51.197-42.665c-3.166-2.645-7.765-2.645-10.931,0
			l-51.197,42.665c-1.937,1.621-3.063,4.019-3.063,6.553c0,2.534,1.126,4.932,3.063,6.553l33.099,27.578h-27.63
			c-4.719,0-8.533,3.823-8.533,8.533h-85.329c0-4.71-3.814-8.533-8.533-8.533h-27.63l33.091-27.578
			c1.945-1.621,3.063-4.019,3.063-6.553c0-2.534-1.126-4.932-3.063-6.553l-51.197-42.665c-3.166-2.645-7.765-2.645-10.931,0
			l-51.197,42.665c-1.937,1.621-3.063,4.019-3.063,6.553c0,2.534,1.126,4.932,3.063,6.553l33.099,27.578h-27.63
			c-4.719,0-8.533,3.823-8.533,8.533h-8.533h-59.73c-4.719,0-8.533,3.823-8.533,8.533s3.814,8.533,8.533,8.533h4.753l-20.94,55.848
			c-0.128,0.247-0.239,0.503-0.341,0.768c-9.983,25.462-11.724,43.117-5.333,53.954c4.386,7.432,10.888,8.644,12.151,8.815
			c0.367,0.051,0.802,0.077,1.178,0.077h25.599c0,18.824,15.308,34.132,34.132,34.132s34.132-15.308,34.132-34.132h25.599
			c0,18.824,15.308,34.132,34.132,34.132c18.824,0,34.132-15.308,34.132-34.132h102.395c0,18.824,15.308,34.132,34.132,34.132
			s34.132-15.308,34.132-34.132h25.599c0,18.824,15.308,34.132,34.132,34.132s34.132-15.308,34.132-34.132h25.599
			c0.375,0,0.751-0.026,1.126-0.077c1.254-0.171,7.765-1.382,12.151-8.815C514.6,325.86,512.859,308.214,502.927,282.862z
			 M76.819,285.866H26.202l22.399-59.73h28.218V285.866z M119.484,328.531H93.885V226.136h25.599V328.531z M115.755,166.405
			l37.869-31.555l37.861,31.555l-37.861,31.555L115.755,166.405z M204.813,285.866H136.55v-59.73h68.263V285.866z M290.142,285.866
			h-68.263v-59.73h68.263V285.866z M320.545,166.405l37.869-31.555l37.86,31.555l-37.869,31.555L320.545,166.405z M375.471,285.866
			h-68.263v-59.73h68.263V285.866z M418.136,328.531h-25.599V226.136h25.599V328.531z M435.21,285.866v-59.73h28.21l22.407,59.73
			H435.21z"/>
	</g>
</g>
<g>
	<g>
		<path d="M503.465,379.728h-68.263h-93.862H170.681H76.819H8.556c-4.719,0-8.533,3.823-8.533,8.533c0,4.71,3.814,8.533,8.533,8.533
			h494.909c4.719,0,8.533-3.823,8.533-8.533S508.183,379.728,503.465,379.728z"/>
	</g>
</g>
</svg>